<svg version="1.1" xmlns="http://www.w3.org/2000/svg" style="display: block;" viewBox="0 0 2048 1638" width="800" height="640">
<defs>
	<linearGradient id="Gradient1" gradientUnits="userSpaceOnUse" x1="1271.56" y1="565.616" x2="1021.06" y2="538.032">
		<stop class="stop0" offset="0" stop-opacity="1" stop-color="rgb(152,159,123)"/>
		<stop class="stop1" offset="1" stop-opacity="1" stop-color="rgb(190,164,143)"/>
	</linearGradient>
</defs>
<path transform="translate(0,0)" fill="url(#Gradient1)" d="M 1093.04 418.51 C 1099.73 422.394 1116.12 424.897 1123.61 422.915 C 1153.4 422.079 1169.21 438.845 1184.69 461.334 L 1238.37 547.636 C 1266.39 593.606 1293.35 606.243 1235.24 631.229 C 1199.17 646.741 1161.5 659.731 1123 667.655 L 1097.9 671.82 C 1091.62 672.55 1085.11 672.598 1078.95 674.044 C 1076.51 665.557 1080.58 651.869 1076.5 645.202 C 1074.05 647.013 1066.84 661.331 1061.8 666.712 C 1061.25 658.906 1063.23 657.248 1066.34 649.912 C 1077.71 623.165 1082.02 572.381 1076.68 542.26 C 1054.43 532.847 1027.77 532.627 1025.47 504.025 L 1025.68 503.946 C 1026.53 504.509 1034.18 521.95 1032.16 512.674 L 1031.51 509 C 1030.14 500.844 1024.3 479.528 1027.05 474.275 L 1034.17 472.73 L 1051.71 464.368 C 1055.86 449.061 1062.03 429.996 1075.26 420.623 C 1079.44 423.37 1089.53 421.477 1093.04 418.51 z"/>
<path transform="translate(0,0)" fill="rgb(153,123,102)" d="M 1034.17 472.73 L 1051.71 464.368 C 1050.25 467.942 1048.9 471.578 1047.01 474.949 L 1034.17 472.73 z"/>
<path transform="translate(0,0)" fill="rgb(121,125,98)" d="M 1496.37 752.417 C 1499.11 747.646 1504.77 743.472 1508.8 739.698 L 1633.57 611.134 C 1687.6 550.636 1735.54 485.187 1781.35 418.353 L 1862.81 292.443 C 1865.66 287.917 1866.6 285.404 1871.74 284.073 C 1876.78 296.002 1869.46 351.278 1867.42 364.27 C 1854.65 445.699 1819 523.317 1774.79 592.234 L 1746.46 632.943 C 1725.21 663.044 1702.66 692.878 1677.77 720.085 L 1619.5 783.003 C 1604.53 798.347 1586.86 813.509 1573.63 830.322 C 1566.73 824.629 1560.54 817.099 1554.19 810.724 L 1496.37 752.417 z"/>
<path transform="translate(0,0)" fill="rgb(121,125,98)" d="M 858.018 243.753 C 888.006 216.516 925.746 210.876 964.5 212.342 C 1061.56 216.013 1133.42 275.743 1128.64 376.945 L 1126.01 405 C 1125.33 410.922 1125.53 417.242 1123.61 422.915 C 1116.12 424.897 1099.73 422.394 1093.04 418.51 C 1089.53 421.477 1079.44 423.37 1075.26 420.623 C 1062.03 429.996 1055.86 449.061 1051.71 464.368 L 1034.17 472.73 L 1027.05 474.275 C 1024.3 479.528 1030.14 500.844 1031.51 509 L 1032.16 512.674 C 1034.18 521.95 1026.53 504.509 1025.68 503.946 L 1025.47 504.025 C 1022.27 496.832 1016.89 482.31 1010.07 478.136 C 1000.59 472.328 939.759 491.589 910.889 478.578 C 884.183 466.541 869.781 439.911 859.771 413.802 C 856.789 400.239 857.738 385.604 857.717 371.784 L 857.474 268.791 C 857.454 260.642 856.743 251.791 858.018 243.753 z"/>
<path transform="translate(0,0)" fill="rgb(186,165,135)" d="M 1075.26 420.623 C 1079.5 417.692 1084.33 415.402 1089.5 414.928 L 1093.04 418.51 C 1089.53 421.477 1079.44 423.37 1075.26 420.623 z"/>
<path transform="translate(0,0)" fill="rgb(208,140,96)" d="M 1370.59 634.092 L 1595.77 421.763 C 1664.48 362.71 1741.46 301.188 1833 284.653 L 1854.78 280.819 C 1861.89 279.68 1866.54 277.929 1871.74 284.073 C 1866.6 285.404 1865.66 287.917 1862.81 292.443 L 1781.35 418.353 C 1735.54 485.187 1687.6 550.636 1633.57 611.134 L 1508.8 739.698 C 1504.77 743.472 1499.11 747.646 1496.37 752.417 C 1489.32 747.96 1483.51 741.333 1477.64 735.478 L 1370.59 634.092 z"/>
<path transform="translate(0,0)" fill="rgb(186,165,135)" d="M 452.433 593.086 L 477.477 540.959 C 492.285 511.605 509.9 482.199 529.189 455.534 C 550.729 425.758 565.885 427.713 598.269 422.461 C 577.543 302.442 627.331 225.382 747 213.732 C 781.677 210.356 837.115 211.033 858.696 243.753 C 856.743 251.791 857.454 260.642 857.474 268.791 L 857.717 371.784 C 857.738 385.604 856.789 400.239 859.621 413.802 C 849.858 442.349 839.547 465.666 810.889 479.756 L 807.889 481.148 C 774.311 495.794 732.472 468.074 706.321 478.38 C 682.871 487.623 689.512 528.075 666.5 536.02 L 665.21 536.483 C 655.284 539.808 633.497 537.669 626.336 542.309 C 614.507 597.185 627.794 676.1 657.344 721.983 C 682.2 760.578 724.803 789.516 765.444 809.618 L 797.259 823.648 C 805.681 827.45 813.659 832.773 822.21 836.1 C 798.669 841.004 775.961 840.924 752.355 836.649 C 744.093 823.995 734.069 820.215 721.396 812.652 C 670.863 782.499 626.873 735.147 619.937 674.5 L 616.97 673.111 C 572.934 668.767 480.983 645.712 455.049 613.926 C 450.006 607.746 451.72 600.678 452.433 593.086 z"/>
<path transform="translate(0,0)" fill="rgb(155,155,122)" d="M 452.433 593.086 L 469.51 608.5 C 496.986 630.049 576.161 655.301 614.503 662.187 C 616.029 662.461 617.081 662.955 618.5 663.49 L 620.005 663.995 C 625.763 666.88 621.404 672.259 616.97 673.111 C 572.934 668.767 480.983 645.712 455.049 613.926 C 450.006 607.746 451.72 600.678 452.433 593.086 z"/>
<path transform="translate(0,0)" fill="rgb(241,220,167)" d="M 822.21 836.1 C 813.659 832.773 805.681 827.45 797.259 823.648 L 765.444 809.618 C 724.803 789.516 682.2 760.578 657.344 721.983 C 627.794 676.1 614.507 597.185 626.336 542.309 C 633.497 537.669 655.284 539.808 665.21 536.483 L 666.5 536.02 C 689.512 528.075 682.871 487.623 706.321 478.38 C 732.472 468.074 774.311 495.794 807.889 481.148 L 810.889 479.756 C 839.547 465.666 849.858 442.349 859.771 413.802 C 869.781 439.911 884.183 466.541 910.889 478.578 C 939.759 491.589 1000.59 472.328 1010.07 478.136 C 1016.89 482.31 1022.27 496.832 1025.47 504.025 C 1027.77 532.627 1054.43 532.847 1076.68 542.26 C 1082.02 572.381 1077.71 623.165 1066.34 649.912 C 1063.23 657.248 1061.25 658.906 1061.8 666.712 C 1066.84 661.331 1074.05 647.013 1076.5 645.202 C 1080.58 651.869 1076.51 665.557 1078.95 674.044 C 1068.22 722.536 1034.58 761.377 997 792.024 L 982.421 803.618 C 976.56 808.308 976.933 810.002 975.383 817.17 L 970.973 840.792 L 918.667 840.698 C 907.194 840.655 891.665 842.359 880.988 838.162 C 861.349 837.284 841.706 840.552 822.21 836.1 z"/>
<path transform="translate(0,0)" fill="rgb(181,132,99)" d="M 1061.8 666.712 C 1066.84 661.331 1074.05 647.013 1076.5 645.202 C 1080.58 651.869 1076.51 665.557 1078.95 674.044 C 1068.22 722.536 1034.58 761.377 997 792.024 L 982.421 803.618 C 976.56 808.308 976.933 810.002 975.383 817.17 L 970.973 840.792 L 918.667 840.698 C 907.194 840.655 891.665 842.359 880.988 838.162 L 885.091 836.647 C 891.383 834.153 897.142 829.992 902.88 826.441 L 934.677 805.585 C 992.188 765.655 1033.97 732.398 1061.8 666.712 z"/>
<path transform="translate(0,0)" fill="rgb(255,203,105)" d="M 1370.59 634.092 L 1477.64 735.478 C 1483.51 741.333 1489.32 747.96 1496.37 752.417 L 1554.19 810.724 C 1560.54 817.099 1566.73 824.629 1573.63 830.322 L 1520.01 884.492 L 1370.24 1032.17 C 1365.98 1027.68 1363.47 1017.92 1360.68 1012.15 C 1350.6 991.37 1339.33 973.283 1324.21 955.791 C 1319.48 950.321 1313.37 945.155 1310.3 938.561 L 1309.99 937.913 C 1282.27 902.813 1196.51 859.037 1155.21 848.02 L 1146.16 864.721 C 1086.29 972.937 970.358 1054.31 846.918 1066.1 C 809.127 1066.11 767.584 1052.5 733.5 1036.96 C 663.283 1004.94 614.377 953.632 577.257 887.377 C 570.472 875.265 562.026 862.3 557.205 849.315 L 564 845.741 C 575.944 837.67 616.829 840.845 632.337 840.537 L 671.04 838.889 C 697.892 838.803 725.67 840.353 752.355 837.682 C 775.961 840.924 798.669 841.004 822.21 836.1 C 841.706 840.552 861.349 837.284 880.988 838.565 C 891.665 842.359 907.194 840.655 918.667 840.698 L 970.973 840.78 C 986.238 841.571 1001.92 840.847 1017.22 840.843 L 1138.75 841.183 C 1163.56 841.974 1164.54 828.472 1183.94 809.935 L 1370.59 634.092 z"/>
<path transform="translate(0,0)" fill="rgb(121,125,98)" d="M 1310.3 938.561 C 1319.23 933.026 1327.52 925.055 1335.2 917.891 L 1447.39 803.483 C 1453.46 813.295 1463.68 822.278 1471.49 830.85 L 1520.01 884.492 L 1370.24 1032.17 C 1365.98 1027.68 1363.47 1017.92 1360.68 1012.15 C 1350.6 991.37 1339.33 973.283 1324.21 955.791 C 1319.48 950.321 1313.37 945.155 1310.3 938.561 z"/>
<path transform="translate(0,0)" fill="rgb(217,174,148)" d="M 847.571 1374.94 L 383.861 1375.11 C 340.836 1374.93 349.368 1337.27 349.364 1307.24 L 349.324 1159.75 C 349.35 1044.54 395.069 940.47 497 878.964 C 516.246 867.351 536.891 858.779 557.205 849.315 C 562.026 862.3 570.472 875.265 577.257 887.377 C 614.377 953.632 663.283 1004.94 733.5 1036.96 C 767.584 1052.5 809.127 1066.11 846.918 1066.1 L 847.118 1311.34 L 847.361 1357.38 C 847.434 1362.47 849.018 1370.25 847.571 1374.94 z"/>
<path transform="translate(0,0)" fill="rgb(208,140,96)" d="M 1146.16 864.721 L 1155.21 848.02 C 1196.51 859.037 1282.27 902.813 1309.99 937.913 L 1310.3 938.561 C 1313.37 945.155 1319.48 950.321 1324.21 955.791 C 1339.33 973.283 1350.6 991.37 1360.68 1012.15 C 1363.47 1017.92 1365.98 1027.68 1370.24 1032.17 L 1370.42 1033.06 C 1373.92 1047.42 1381.79 1061.75 1386.54 1075.88 C 1397.89 1109.66 1399.93 1134.08 1400.01 1169 L 1400.04 1310.16 C 1400.01 1333.49 1406.16 1359.84 1381.5 1372.71 L 1380.28 1373.38 C 1377.45 1374.82 1374.75 1375.1 1371.62 1375.2 L 849.112 1375.08 C 849.018 1370.25 847.434 1362.47 847.361 1357.38 L 847.101 1311.34 L 847.079 1066.1 C 970.358 1054.31 1086.29 972.937 1146.16 864.721 z"/>
<path transform="translate(0,0)" fill="rgb(181,132,99)" d="M 1146.16 864.721 L 1155.21 848.02 C 1196.51 859.037 1282.27 902.813 1309.99 937.913 L 1310.3 938.561 C 1313.37 945.155 1319.48 950.321 1324.21 955.791 C 1339.33 973.283 1350.6 991.37 1360.68 1012.15 C 1363.47 1017.92 1365.98 1027.68 1370.24 1032.17 L 1370.42 1033.06 C 1373.92 1047.42 1381.79 1061.75 1386.54 1075.88 C 1397.89 1109.66 1399.93 1134.08 1400.01 1169 L 1400.04 1310.16 C 1400.01 1333.49 1406.16 1359.84 1381.5 1372.71 L 1380.28 1373.38 C 1377.45 1374.82 1374.75 1375.1 1371.62 1375.2 L 849.112 1375.08 C 849.018 1370.25 847.434 1362.47 847.361 1357.38 L 847.101 1311.34 L 1135.91 1308.84 C 1135.78 1285.87 1138.74 1263.39 1138.93 1240.64 L 1138.92 1169.51 C 1138.93 1161.18 1134.66 1132.89 1144 1130.01 L 1146.5 1131.37 C 1152.22 1139.09 1151.66 1155.82 1151.96 1164.81 L 1152.26 1311.25 L 1240.73 1309.09 L 1352.99 1315.29 L 1351 1159.5 C 1346.3 1056.15 1326.61 991.105 1245.18 927.167 C 1220.93 908.126 1196.15 892.093 1168.07 879.426 C 1160.15 875.854 1150.84 873.892 1146.61 865.651 L 1146.16 864.721 z"/>
</svg>